<svg class="svg-icon" style="fill: rgb(105, 80, 223); overflow: hidden;" viewBox="0 0 1024 1024" version="1.1" xmlns="http://www.w3.org/2000/svg">
  <path d="M1002.857143 258.857143q21.142857 21.714286 21.142857 51.714286t-21.142857 51.714285l-229.142857 228.571429 85.714285 85.714286-91.428571 91.428571q-93.142857 93.142857-222.571429 106.571429T310.285714 817.142857l-206.857143 206.857143H0v-103.428571l206.857143-206.857143q-70.857143-105.714286-57.428572-235.142857T256 256l91.428571-91.428571 85.714286 85.714285 228.571429-229.142857q21.714286-21.142857 52-21.142857t51.428571 21.142857 21.142857 51.714286-21.142857 51.714286L536.571429 353.714286l133.714285 133.714285 229.142857-228.571428q21.714286-21.142857 52-21.142857t51.428572 21.142857z" />
</svg>
